<svg width="1440" height="708" viewBox="0 0 1440 708" fill="none" xmlns="http://www.w3.org/2000/svg">
<rect width="1440" height="708" fill="url(#paint0_linear)"/>
<mask id="mask0" mask-type="alpha" maskUnits="userSpaceOnUse" x="0" y="0" width="1440" height="708">
<rect width="1440" height="708" fill="url(#paint1_linear)"/>
</mask>
<g mask="url(#mask0)">
<circle cx="352" cy="122" r="3" fill="#4541A4"/>
<circle cx="366" cy="122" r="3" fill="#4541A4"/>
<circle cx="380" cy="122" r="3" fill="#4541A4"/>
<circle cx="394" cy="122" r="3" fill="#4541A4"/>
<circle cx="408" cy="122" r="3" fill="#4541A4"/>
<circle cx="422" cy="122" r="3" fill="#4541A4"/>
<circle cx="436" cy="122" r="3" fill="#4541A4"/>
<circle cx="352" cy="136" r="3" fill="#4541A4"/>
<circle cx="366" cy="136" r="3" fill="#4541A4"/>
<circle cx="380" cy="136" r="3" fill="#4541A4"/>
<circle cx="394" cy="136" r="3" fill="#4541A4"/>
<circle cx="408" cy="136" r="3" fill="#4541A4"/>
<circle cx="422" cy="136" r="3" fill="#4541A4"/>
<circle cx="436" cy="136" r="3" fill="#4541A4"/>
<circle cx="352" cy="150" r="3" fill="#4541A4"/>
<circle cx="366" cy="150" r="3" fill="#4541A4"/>
<circle cx="380" cy="150" r="3" fill="#4541A4"/>
<circle cx="394" cy="150" r="3" fill="#4541A4"/>
<circle cx="408" cy="150" r="3" fill="#4541A4"/>
<circle cx="422" cy="150" r="3" fill="#4541A4"/>
<circle cx="436" cy="150" r="3" fill="#4541A4"/>
<circle cx="352" cy="164" r="3" fill="#4541A4"/>
<circle cx="366" cy="164" r="3" fill="#4541A4"/>
<circle cx="380" cy="164" r="3" fill="#4541A4"/>
<circle cx="394" cy="164" r="3" fill="#4541A4"/>
<circle cx="408" cy="164" r="3" fill="#4541A4"/>
<circle cx="422" cy="164" r="3" fill="#4541A4"/>
<circle cx="436" cy="164" r="3" fill="#4541A4"/>
<circle cx="352" cy="178" r="3" fill="#4541A4"/>
<circle cx="366" cy="178" r="3" fill="#4541A4"/>
<circle cx="380" cy="178" r="3" fill="#4541A4"/>
<circle cx="394" cy="178" r="3" fill="#4541A4"/>
<circle cx="408" cy="178" r="3" fill="#4541A4"/>
<circle cx="422" cy="178" r="3" fill="#4541A4"/>
<circle cx="436" cy="178" r="3" fill="#4541A4"/>
<circle cx="352" cy="192" r="3" fill="#4541A4"/>
<circle cx="366" cy="192" r="3" fill="#4541A4"/>
<circle cx="380" cy="192" r="3" fill="#4541A4"/>
<circle cx="394" cy="192" r="3" fill="#4541A4"/>
<circle cx="408" cy="192" r="3" fill="#4541A4"/>
<circle cx="422" cy="192" r="3" fill="#4541A4"/>
<circle cx="436" cy="192" r="3" fill="#4541A4"/>
<circle cx="352" cy="206" r="3" fill="#4541A4"/>
<circle cx="366" cy="206" r="3" fill="#4541A4"/>
<circle cx="380" cy="206" r="3" fill="#4541A4"/>
<circle cx="394" cy="206" r="3" fill="#4541A4"/>
<circle cx="408" cy="206" r="3" fill="#4541A4"/>
<circle cx="422" cy="206" r="3" fill="#4541A4"/>
<circle cx="436" cy="206" r="3" fill="#4541A4"/>
<circle cx="352" cy="220" r="3" fill="#4541A4"/>
<circle cx="366" cy="220" r="3" fill="#4541A4"/>
<circle cx="380" cy="220" r="3" fill="#4541A4"/>
<circle cx="394" cy="220" r="3" fill="#4541A4"/>
<circle cx="408" cy="220" r="3" fill="#4541A4"/>
<circle cx="422" cy="220" r="3" fill="#4541A4"/>
<circle cx="436" cy="220" r="3" fill="#4541A4"/>
<circle cx="352" cy="234" r="3" fill="#4541A4"/>
<circle cx="366" cy="234" r="3" fill="#4541A4"/>
<circle cx="380" cy="234" r="3" fill="#4541A4"/>
<circle cx="394" cy="234" r="3" fill="#4541A4"/>
<circle cx="408" cy="234" r="3" fill="#4541A4"/>
<circle cx="422" cy="234" r="3" fill="#4541A4"/>
<circle cx="436" cy="234" r="3" fill="#4541A4"/>
<circle cx="352" cy="248" r="3" fill="#4541A4"/>
<circle cx="366" cy="248" r="3" fill="#4541A4"/>
<circle cx="380" cy="248" r="3" fill="#4541A4"/>
<circle cx="394" cy="248" r="3" fill="#4541A4"/>
<circle cx="408" cy="248" r="3" fill="#4541A4"/>
<circle cx="422" cy="248" r="3" fill="#4541A4"/>
<circle cx="436" cy="248" r="3" fill="#4541A4"/>
<circle cx="352" cy="262" r="3" fill="#4541A4"/>
<circle cx="366" cy="262" r="3" fill="#4541A4"/>
<circle cx="380" cy="262" r="3" fill="#4541A4"/>
<circle cx="394" cy="262" r="3" fill="#4541A4"/>
<circle cx="408" cy="262" r="3" fill="#4541A4"/>
<circle cx="422" cy="262" r="3" fill="#4541A4"/>
<circle cx="436" cy="262" r="3" fill="#4541A4"/>
<circle cx="352" cy="276" r="3" fill="#4541A4"/>
<circle cx="366" cy="276" r="3" fill="#4541A4"/>
<circle cx="380" cy="276" r="3" fill="#4541A4"/>
<circle cx="394" cy="276" r="3" fill="#4541A4"/>
<circle cx="408" cy="276" r="3" fill="#4541A4"/>
<circle cx="422" cy="276" r="3" fill="#4541A4"/>
<circle cx="436" cy="276" r="3" fill="#4541A4"/>
<circle cx="450" cy="122" r="3" fill="#4541A4"/>
<circle cx="464" cy="122" r="3" fill="#4541A4"/>
<circle cx="478" cy="122" r="3" fill="#4541A4"/>
<circle cx="492" cy="122" r="3" fill="#4541A4"/>
<circle cx="506" cy="122" r="3" fill="#4541A4"/>
<circle cx="520" cy="122" r="3" fill="#4541A4"/>
<circle cx="534" cy="122" r="3" fill="#4541A4"/>
<circle cx="450" cy="136" r="3" fill="#4541A4"/>
<circle cx="464" cy="136" r="3" fill="#4541A4"/>
<circle cx="478" cy="136" r="3" fill="#4541A4"/>
<circle cx="492" cy="136" r="3" fill="#4541A4"/>
<circle cx="506" cy="136" r="3" fill="#4541A4"/>
<circle cx="520" cy="136" r="3" fill="#4541A4"/>
<circle cx="534" cy="136" r="3" fill="#4541A4"/>
<circle cx="450" cy="150" r="3" fill="#4541A4"/>
<circle cx="464" cy="150" r="3" fill="#4541A4"/>
<circle cx="478" cy="150" r="3" fill="#4541A4"/>
<circle cx="492" cy="150" r="3" fill="#4541A4"/>
<circle cx="506" cy="150" r="3" fill="#4541A4"/>
<circle cx="520" cy="150" r="3" fill="#4541A4"/>
<circle cx="534" cy="150" r="3" fill="#4541A4"/>
<circle cx="450" cy="164" r="3" fill="#4541A4"/>
<circle cx="464" cy="164" r="3" fill="#4541A4"/>
<circle cx="478" cy="164" r="3" fill="#4541A4"/>
<circle cx="492" cy="164" r="3" fill="#4541A4"/>
<circle cx="506" cy="164" r="3" fill="#4541A4"/>
<circle cx="520" cy="164" r="3" fill="#4541A4"/>
<circle cx="534" cy="164" r="3" fill="#4541A4"/>
<circle cx="450" cy="178" r="3" fill="#4541A4"/>
<circle cx="464" cy="178" r="3" fill="#4541A4"/>
<circle cx="478" cy="178" r="3" fill="#4541A4"/>
<circle cx="492" cy="178" r="3" fill="#4541A4"/>
<circle cx="506" cy="178" r="3" fill="#4541A4"/>
<circle cx="520" cy="178" r="3" fill="#4541A4"/>
<circle cx="534" cy="178" r="3" fill="#4541A4"/>
<circle cx="450" cy="192" r="3" fill="#4541A4"/>
<circle cx="464" cy="192" r="3" fill="#4541A4"/>
<circle cx="478" cy="192" r="3" fill="#4541A4"/>
<circle cx="492" cy="192" r="3" fill="#4541A4"/>
<circle cx="506" cy="192" r="3" fill="#4541A4"/>
<circle cx="520" cy="192" r="3" fill="#4541A4"/>
<circle cx="534" cy="192" r="3" fill="#4541A4"/>
<circle cx="450" cy="206" r="3" fill="#4541A4"/>
<circle cx="464" cy="206" r="3" fill="#4541A4"/>
<circle cx="478" cy="206" r="3" fill="#4541A4"/>
<circle cx="492" cy="206" r="3" fill="#4541A4"/>
<circle cx="506" cy="206" r="3" fill="#4541A4"/>
<circle cx="520" cy="206" r="3" fill="#4541A4"/>
<circle cx="534" cy="206" r="3" fill="#4541A4"/>
<circle cx="450" cy="220" r="3" fill="#4541A4"/>
<circle cx="464" cy="220" r="3" fill="#4541A4"/>
<circle cx="478" cy="220" r="3" fill="#4541A4"/>
<circle cx="492" cy="220" r="3" fill="#4541A4"/>
<circle cx="506" cy="220" r="3" fill="#4541A4"/>
<circle cx="520" cy="220" r="3" fill="#4541A4"/>
<circle cx="534" cy="220" r="3" fill="#4541A4"/>
<circle cx="450" cy="234" r="3" fill="#4541A4"/>
<circle cx="464" cy="234" r="3" fill="#4541A4"/>
<circle cx="478" cy="234" r="3" fill="#4541A4"/>
<circle cx="492" cy="234" r="3" fill="#4541A4"/>
<circle cx="506" cy="234" r="3" fill="#4541A4"/>
<circle cx="520" cy="234" r="3" fill="#4541A4"/>
<circle cx="534" cy="234" r="3" fill="#4541A4"/>
<circle cx="450" cy="248" r="3" fill="#4541A4"/>
<circle cx="464" cy="248" r="3" fill="#4541A4"/>
<circle cx="478" cy="248" r="3" fill="#4541A4"/>
<circle cx="492" cy="248" r="3" fill="#4541A4"/>
<circle cx="506" cy="248" r="3" fill="#4541A4"/>
<circle cx="520" cy="248" r="3" fill="#4541A4"/>
<circle cx="534" cy="248" r="3" fill="#4541A4"/>
<circle cx="450" cy="262" r="3" fill="#4541A4"/>
<circle cx="464" cy="262" r="3" fill="#4541A4"/>
<circle cx="478" cy="262" r="3" fill="#4541A4"/>
<circle cx="492" cy="262" r="3" fill="#4541A4"/>
<circle cx="506" cy="262" r="3" fill="#4541A4"/>
<circle cx="520" cy="262" r="3" fill="#4541A4"/>
<circle cx="534" cy="262" r="3" fill="#4541A4"/>
<circle cx="450" cy="276" r="3" fill="#4541A4"/>
<circle cx="464" cy="276" r="3" fill="#4541A4"/>
<circle cx="478" cy="276" r="3" fill="#4541A4"/>
<circle cx="492" cy="276" r="3" fill="#4541A4"/>
<circle cx="506" cy="276" r="3" fill="#4541A4"/>
<circle cx="520" cy="276" r="3" fill="#4541A4"/>
<circle cx="534" cy="276" r="3" fill="#4541A4"/>
<circle cx="917" cy="357" r="3" fill="#4541A4"/>
<circle cx="931" cy="357" r="3" fill="#4541A4"/>
<circle cx="945" cy="357" r="3" fill="#4541A4"/>
<circle cx="959" cy="357" r="3" fill="#4541A4"/>
<circle cx="973" cy="357" r="3" fill="#4541A4"/>
<circle cx="987" cy="357" r="3" fill="#4541A4"/>
<circle cx="1001" cy="357" r="3" fill="#4541A4"/>
<circle cx="917" cy="371" r="3" fill="#4541A4"/>
<circle cx="931" cy="371" r="3" fill="#4541A4"/>
<circle cx="945" cy="371" r="3" fill="#4541A4"/>
<circle cx="959" cy="371" r="3" fill="#4541A4"/>
<circle cx="973" cy="371" r="3" fill="#4541A4"/>
<circle cx="987" cy="371" r="3" fill="#4541A4"/>
<circle cx="1001" cy="371" r="3" fill="#4541A4"/>
<circle cx="917" cy="385" r="3" fill="#4541A4"/>
<circle cx="931" cy="385" r="3" fill="#4541A4"/>
<circle cx="945" cy="385" r="3" fill="#4541A4"/>
<circle cx="959" cy="385" r="3" fill="#4541A4"/>
<circle cx="973" cy="385" r="3" fill="#4541A4"/>
<circle cx="987" cy="385" r="3" fill="#4541A4"/>
<circle cx="1001" cy="385" r="3" fill="#4541A4"/>
<circle cx="917" cy="399" r="3" fill="#4541A4"/>
<circle cx="931" cy="399" r="3" fill="#4541A4"/>
<circle cx="945" cy="399" r="3" fill="#4541A4"/>
<circle cx="959" cy="399" r="3" fill="#4541A4"/>
<circle cx="973" cy="399" r="3" fill="#4541A4"/>
<circle cx="987" cy="399" r="3" fill="#4541A4"/>
<circle cx="1001" cy="399" r="3" fill="#4541A4"/>
<circle cx="917" cy="413" r="3" fill="#4541A4"/>
<circle cx="931" cy="413" r="3" fill="#4541A4"/>
<circle cx="945" cy="413" r="3" fill="#4541A4"/>
<circle cx="959" cy="413" r="3" fill="#4541A4"/>
<circle cx="973" cy="413" r="3" fill="#4541A4"/>
<circle cx="987" cy="413" r="3" fill="#4541A4"/>
<circle cx="1001" cy="413" r="3" fill="#4541A4"/>
<circle cx="917" cy="427" r="3" fill="#4541A4"/>
<circle cx="931" cy="427" r="3" fill="#4541A4"/>
<circle cx="945" cy="427" r="3" fill="#4541A4"/>
<circle cx="959" cy="427" r="3" fill="#4541A4"/>
<circle cx="973" cy="427" r="3" fill="#4541A4"/>
<circle cx="987" cy="427" r="3" fill="#4541A4"/>
<circle cx="1001" cy="427" r="3" fill="#4541A4"/>
<circle cx="917" cy="441" r="3" fill="#4541A4"/>
<circle cx="931" cy="441" r="3" fill="#4541A4"/>
<circle cx="945" cy="441" r="3" fill="#4541A4"/>
<circle cx="959" cy="441" r="3" fill="#4541A4"/>
<circle cx="973" cy="441" r="3" fill="#4541A4"/>
<circle cx="987" cy="441" r="3" fill="#4541A4"/>
<circle cx="1001" cy="441" r="3" fill="#4541A4"/>
<circle cx="917" cy="455" r="3" fill="#4541A4"/>
<circle cx="931" cy="455" r="3" fill="#4541A4"/>
<circle cx="945" cy="455" r="3" fill="#4541A4"/>
<circle cx="959" cy="455" r="3" fill="#4541A4"/>
<circle cx="973" cy="455" r="3" fill="#4541A4"/>
<circle cx="987" cy="455" r="3" fill="#4541A4"/>
<circle cx="1001" cy="455" r="3" fill="#4541A4"/>
<circle cx="917" cy="469" r="3" fill="#4541A4"/>
<circle cx="931" cy="469" r="3" fill="#4541A4"/>
<circle cx="945" cy="469" r="3" fill="#4541A4"/>
<circle cx="959" cy="469" r="3" fill="#4541A4"/>
<circle cx="973" cy="469" r="3" fill="#4541A4"/>
<circle cx="987" cy="469" r="3" fill="#4541A4"/>
<circle cx="1001" cy="469" r="3" fill="#4541A4"/>
<circle cx="917" cy="483" r="3" fill="#4541A4"/>
<circle cx="931" cy="483" r="3" fill="#4541A4"/>
<circle cx="945" cy="483" r="3" fill="#4541A4"/>
<circle cx="959" cy="483" r="3" fill="#4541A4"/>
<circle cx="973" cy="483" r="3" fill="#4541A4"/>
<circle cx="987" cy="483" r="3" fill="#4541A4"/>
<circle cx="1001" cy="483" r="3" fill="#4541A4"/>
<circle cx="917" cy="497" r="3" fill="#4541A4"/>
<circle cx="931" cy="497" r="3" fill="#4541A4"/>
<circle cx="945" cy="497" r="3" fill="#4541A4"/>
<circle cx="959" cy="497" r="3" fill="#4541A4"/>
<circle cx="973" cy="497" r="3" fill="#4541A4"/>
<circle cx="987" cy="497" r="3" fill="#4541A4"/>
<circle cx="1001" cy="497" r="3" fill="#4541A4"/>
<circle cx="917" cy="511" r="3" fill="#4541A4"/>
<circle cx="931" cy="511" r="3" fill="#4541A4"/>
<circle cx="945" cy="511" r="3" fill="#4541A4"/>
<circle cx="959" cy="511" r="3" fill="#4541A4"/>
<circle cx="973" cy="511" r="3" fill="#4541A4"/>
<circle cx="987" cy="511" r="3" fill="#4541A4"/>
<circle cx="1001" cy="511" r="3" fill="#4541A4"/>
<circle cx="1015" cy="357" r="3" fill="#4541A4"/>
<circle cx="1029" cy="357" r="3" fill="#4541A4"/>
<circle cx="1043" cy="357" r="3" fill="#4541A4"/>
<circle cx="1057" cy="357" r="3" fill="#4541A4"/>
<circle cx="1071" cy="357" r="3" fill="#4541A4"/>
<circle cx="1085" cy="357" r="3" fill="#4541A4"/>
<circle cx="1099" cy="357" r="3" fill="#4541A4"/>
<circle cx="1015" cy="371" r="3" fill="#4541A4"/>
<circle cx="1029" cy="371" r="3" fill="#4541A4"/>
<circle cx="1043" cy="371" r="3" fill="#4541A4"/>
<circle cx="1057" cy="371" r="3" fill="#4541A4"/>
<circle cx="1071" cy="371" r="3" fill="#4541A4"/>
<circle cx="1085" cy="371" r="3" fill="#4541A4"/>
<circle cx="1099" cy="371" r="3" fill="#4541A4"/>
<circle cx="1015" cy="385" r="3" fill="#4541A4"/>
<circle cx="1029" cy="385" r="3" fill="#4541A4"/>
<circle cx="1043" cy="385" r="3" fill="#4541A4"/>
<circle cx="1057" cy="385" r="3" fill="#4541A4"/>
<circle cx="1071" cy="385" r="3" fill="#4541A4"/>
<circle cx="1085" cy="385" r="3" fill="#4541A4"/>
<circle cx="1099" cy="385" r="3" fill="#4541A4"/>
<circle cx="1015" cy="399" r="3" fill="#4541A4"/>
<circle cx="1029" cy="399" r="3" fill="#4541A4"/>
<circle cx="1043" cy="399" r="3" fill="#4541A4"/>
<circle cx="1057" cy="399" r="3" fill="#4541A4"/>
<circle cx="1071" cy="399" r="3" fill="#4541A4"/>
<circle cx="1085" cy="399" r="3" fill="#4541A4"/>
<circle cx="1099" cy="399" r="3" fill="#4541A4"/>
<circle cx="1015" cy="413" r="3" fill="#4541A4"/>
<circle cx="1029" cy="413" r="3" fill="#4541A4"/>
<circle cx="1043" cy="413" r="3" fill="#4541A4"/>
<circle cx="1057" cy="413" r="3" fill="#4541A4"/>
<circle cx="1071" cy="413" r="3" fill="#4541A4"/>
<circle cx="1085" cy="413" r="3" fill="#4541A4"/>
<circle cx="1099" cy="413" r="3" fill="#4541A4"/>
<circle cx="1015" cy="427" r="3" fill="#4541A4"/>
<circle cx="1029" cy="427" r="3" fill="#4541A4"/>
<circle cx="1043" cy="427" r="3" fill="#4541A4"/>
<circle cx="1057" cy="427" r="3" fill="#4541A4"/>
<circle cx="1071" cy="427" r="3" fill="#4541A4"/>
<circle cx="1085" cy="427" r="3" fill="#4541A4"/>
<circle cx="1099" cy="427" r="3" fill="#4541A4"/>
<circle cx="1015" cy="441" r="3" fill="#4541A4"/>
<circle cx="1029" cy="441" r="3" fill="#4541A4"/>
<circle cx="1043" cy="441" r="3" fill="#4541A4"/>
<circle cx="1057" cy="441" r="3" fill="#4541A4"/>
<circle cx="1071" cy="441" r="3" fill="#4541A4"/>
<circle cx="1085" cy="441" r="3" fill="#4541A4"/>
<circle cx="1099" cy="441" r="3" fill="#4541A4"/>
<circle cx="1015" cy="455" r="3" fill="#4541A4"/>
<circle cx="1029" cy="455" r="3" fill="#4541A4"/>
<circle cx="1043" cy="455" r="3" fill="#4541A4"/>
<circle cx="1057" cy="455" r="3" fill="#4541A4"/>
<circle cx="1071" cy="455" r="3" fill="#4541A4"/>
<circle cx="1085" cy="455" r="3" fill="#4541A4"/>
<circle cx="1099" cy="455" r="3" fill="#4541A4"/>
<circle cx="1015" cy="469" r="3" fill="#4541A4"/>
<circle cx="1029" cy="469" r="3" fill="#4541A4"/>
<circle cx="1043" cy="469" r="3" fill="#4541A4"/>
<circle cx="1057" cy="469" r="3" fill="#4541A4"/>
<circle cx="1071" cy="469" r="3" fill="#4541A4"/>
<circle cx="1085" cy="469" r="3" fill="#4541A4"/>
<circle cx="1099" cy="469" r="3" fill="#4541A4"/>
<circle cx="1015" cy="483" r="3" fill="#4541A4"/>
<circle cx="1029" cy="483" r="3" fill="#4541A4"/>
<circle cx="1043" cy="483" r="3" fill="#4541A4"/>
<circle cx="1057" cy="483" r="3" fill="#4541A4"/>
<circle cx="1071" cy="483" r="3" fill="#4541A4"/>
<circle cx="1085" cy="483" r="3" fill="#4541A4"/>
<circle cx="1099" cy="483" r="3" fill="#4541A4"/>
<circle cx="1015" cy="497" r="3" fill="#4541A4"/>
<circle cx="1029" cy="497" r="3" fill="#4541A4"/>
<circle cx="1043" cy="497" r="3" fill="#4541A4"/>
<circle cx="1057" cy="497" r="3" fill="#4541A4"/>
<circle cx="1071" cy="497" r="3" fill="#4541A4"/>
<circle cx="1085" cy="497" r="3" fill="#4541A4"/>
<circle cx="1099" cy="497" r="3" fill="#4541A4"/>
<circle cx="1015" cy="511" r="3" fill="#4541A4"/>
<circle cx="1029" cy="511" r="3" fill="#4541A4"/>
<circle cx="1043" cy="511" r="3" fill="#4541A4"/>
<circle cx="1057" cy="511" r="3" fill="#4541A4"/>
<circle cx="1071" cy="511" r="3" fill="#4541A4"/>
<circle cx="1085" cy="511" r="3" fill="#4541A4"/>
<circle cx="1099" cy="511" r="3" fill="#4541A4"/>
<path d="M891 0H1440V708L1115.83 551L891 0Z" fill="url(#paint2_linear)"/>
<rect x="-17" y="416" width="285" height="295" fill="url(#paint3_linear)"/>
<path d="M40 790H295L40 527V790Z" fill="url(#paint4_linear)"/>
</g>
<defs>
<linearGradient id="paint0_linear" x1="720" y1="0" x2="720" y2="957.208" gradientUnits="userSpaceOnUse">
<stop stop-color="#1C1B7E"/>
<stop offset="1" stop-color="#1E1079"/>
</linearGradient>
<linearGradient id="paint1_linear" x1="720" y1="0" x2="720" y2="957.208" gradientUnits="userSpaceOnUse">
<stop stop-color="#1C1B7E"/>
<stop offset="1" stop-color="#1E1079"/>
</linearGradient>
<linearGradient id="paint2_linear" x1="1179.59" y1="0" x2="1179.59" y2="708" gradientUnits="userSpaceOnUse">
<stop stop-color="#2D29A3"/>
<stop offset="1" stop-color="#261B86" stop-opacity="0"/>
</linearGradient>
<linearGradient id="paint3_linear" x1="125.5" y1="416" x2="125.5" y2="711" gradientUnits="userSpaceOnUse">
<stop stop-color="#282599"/>
<stop offset="1" stop-color="#261B86"/>
</linearGradient>
<linearGradient id="paint4_linear" x1="167.5" y1="527" x2="167.5" y2="790" gradientUnits="userSpaceOnUse">
<stop stop-color="#3936B4"/>
<stop offset="1" stop-color="#2B2092"/>
</linearGradient>
</defs>
</svg>
